<?xml version="1.0" encoding="UTF-8"?>
<svg width="16px" height="16px" viewBox="0 0 16 16" version="1.1" xmlns="http://www.w3.org/2000/svg" xmlns:xlink="http://www.w3.org/1999/xlink">
    <title>数值</title>
    <g id="2-图标/icon" stroke="none" stroke-width="1" fill="none" fill-rule="evenodd">
        <g id="数值3">
            <rect id="矩形" x="0" y="0" width="16" height="16"></rect>
            <g id="123" transform="translate(1.000000, 4.320000)" fill="#606266" fill-rule="nonzero">
                <path d="M1.90503189,0.138908575 C1.66690291,0.386959603 1.36924167,0.615166549 1.01204819,0.833451453 C0.654854713,1.03189227 0.317505315,1.17080085 1.12800548e-13,1.25017718 L1.12800548e-13,2.40113395 C0.654854713,2.21261517 1.19064493,1.92487597 1.6172927,1.53791637 L1.6172927,7.22324592 L2.77817151,7.22324592 L2.77817151,0.138908575 L1.90503189,0.138908575 Z" id="路径"></path>
                <path d="M6.16158753,0 C5.39759036,0 4.78242381,0.257973069 4.31608788,0.773919206 C3.85967399,1.26009922 3.63146704,1.89510985 3.621545,2.68887314 L4.78242381,2.68887314 C4.8022679,2.13323884 4.92133239,1.70659107 5.13961729,1.42877392 C5.3579022,1.13111269 5.68532955,0.982282069 6.12189936,0.982282069 C6.52870305,0.982282069 6.83628632,1.07158044 7.04464918,1.26009922 C7.24309001,1.448618 7.35223246,1.73635719 7.35223246,2.1233168 C7.35223246,2.52019844 7.1934798,2.897236 6.88589653,3.24450744 C6.68745571,3.4528703 6.36995039,3.72076541 5.9135365,4.03827073 C5.09000709,4.60382707 4.54429483,5.04039688 4.28632176,5.33805811 C3.81006378,5.87384833 3.58185684,6.49893692 3.58185684,7.22324592 L8.52303331,7.22324592 L8.52303331,6.20127569 L5.03047484,6.20127569 C5.1892275,5.84408221 5.62579731,5.42735648 6.35010631,4.95109851 C7.04464918,4.48476258 7.54075124,4.10772502 7.81856839,3.81006378 C8.27498228,3.30403969 8.51311127,2.74840539 8.51311127,2.13323884 C8.51311127,1.49822821 8.29482636,0.992204111 7.85825656,0.595322466 C7.41176471,0.198440822 6.84620836,0 6.16158753,0 Z" id="路径"></path>
                <path d="M11.4798016,0 C10.7852587,0 10.2097803,0.188518781 9.76328845,0.585400425 C9.28703047,0.982282069 9.02905741,1.53791637 8.96952516,2.25230333 L10.1105599,2.25230333 C10.1502481,1.82565556 10.2891566,1.50815025 10.5272856,1.29978738 C10.7554926,1.09142452 11.0729979,0.992204111 11.4897236,0.992204111 C11.8965273,0.992204111 12.2041106,1.08150248 12.4124734,1.26009922 C12.6009922,1.43869596 12.7002126,1.69666903 12.7002126,2.04394047 C12.7002126,2.39121191 12.5910702,2.65910702 12.3827073,2.83770376 C12.1644224,3.0163005 11.8469171,3.10559887 11.4301914,3.10559887 L10.9340893,3.10559887 L10.9340893,3.97873848 L11.4301914,3.97873848 C11.8866052,3.97873848 12.2338767,4.06803685 12.4720057,4.26647768 C12.7101347,4.45499646 12.8391212,4.75265769 12.8391212,5.15946137 C12.8391212,5.49681077 12.7200567,5.77462792 12.4918498,6.00283487 C12.2338767,6.2508859 11.8766832,6.37987243 11.4301914,6.37987243 C11.0233877,6.37987243 10.6959603,6.26080794 10.4479093,6.03260099 C10.1700921,5.78454996 10.0311836,5.42735648 10.0113395,4.97094259 L8.83061658,4.97094259 C8.89014883,5.76470588 9.16796598,6.37987243 9.66406804,6.79659816 C10.1105599,7.17363572 10.7058824,7.3621545 11.4401134,7.3621545 C12.2140326,7.3621545 12.8391212,7.1438696 13.3153792,6.71722183 C13.7717931,6.3004961 14,5.76470588 14,5.10985117 C14,4.69312544 13.8809355,4.345854 13.6428065,4.07795889 C13.4245216,3.81998583 13.0970943,3.63146704 12.6803685,3.50248051 C13.4642098,3.24450744 13.8610914,2.7285613 13.8610914,1.9546421 C13.8610914,1.33947555 13.6428065,0.863217576 13.2161588,0.515946137 C12.7795889,0.168674699 12.1941885,0 11.4798016,0 Z" id="路径"></path>
            </g>
        </g>
    </g>
</svg>